<?xml version="1.0" encoding="UTF-8" standalone="no"?><!DOCTYPE svg PUBLIC "-//W3C//DTD SVG 1.1//EN" "http://www.w3.org/Graphics/SVG/1.1/DTD/svg11.dtd"><!-- Generated by graphviz version 2.40.1 (20161225.0304)
 --><!-- Title: G Pages: 1 --><svg xmlns="http://www.w3.org/2000/svg" xmlns:xlink="http://www.w3.org/1999/xlink" width="377pt" height="332pt" viewBox="0.00 0.00 376.60 332.00">
<g id="graph0" class="graph" transform="scale(1 1) rotate(0) translate(4 328)">
<title>G</title>
<polygon fill="#ffffff" stroke="transparent" points="-4,4 -4,-328 372.6033,-328 372.6033,4 -4,4"/>
<!-- genesis -->
<g id="node1" class="node">
<title>genesis</title>
<polygon fill="none" stroke="#000000" points="226,-324 167.324,-306 226,-288 284.676,-306 226,-324"/>
<polyline fill="none" stroke="#000000" points="178.7963,-309.5194 178.7963,-302.4806 "/>
<polyline fill="none" stroke="#000000" points="214.5277,-291.5194 237.4723,-291.5194 "/>
<polyline fill="none" stroke="#000000" points="273.2037,-302.4806 273.2037,-309.5194 "/>
<polyline fill="none" stroke="#000000" points="237.4723,-320.4806 214.5277,-320.4806 "/>
<text text-anchor="middle" x="226" y="-301.8" font-family="Times,serif" font-size="14.00" fill="#000000">Genesis</text>
</g>
<!-- mint_baton1 -->
<g id="node2" class="node">
<title>mint_baton1</title>
<polygon fill="none" stroke="#000000" points="275.0582,-252 176.9418,-252 176.9418,-216 275.0582,-216 275.0582,-252"/>
<text text-anchor="middle" x="226" y="-229.8" font-family="Times,serif" font-size="14.00" fill="#000000">Minting Baton</text>
</g>
<!-- genesis&#45;&gt;mint_baton1 -->
<g id="edge1" class="edge">
<title>genesis-&gt;mint_baton1</title>
<path fill="none" stroke="#000000" d="M226,-287.8314C226,-280.131 226,-270.9743 226,-262.4166"/>
<polygon fill="#000000" stroke="#000000" points="229.5001,-262.4132 226,-252.4133 222.5001,-262.4133 229.5001,-262.4132"/>
</g>
<!-- mint_baton2 -->
<g id="node3" class="node">
<title>mint_baton2</title>
<polygon fill="none" stroke="#000000" points="205.0582,-180 106.9418,-180 106.9418,-144 205.0582,-144 205.0582,-180"/>
<text text-anchor="middle" x="156" y="-157.8" font-family="Times,serif" font-size="14.00" fill="#000000">Minting Baton</text>
</g>
<!-- mint_baton1&#45;&gt;mint_baton2 -->
<g id="edge2" class="edge">
<title>mint_baton1-&gt;mint_baton2</title>
<path fill="none" stroke="#000000" d="M208.336,-215.8314C200.0268,-207.2848 189.9736,-196.9443 180.9082,-187.6198"/>
<polygon fill="#000000" stroke="#000000" points="183.3821,-185.1435 173.9018,-180.4133 178.3631,-190.023 183.3821,-185.1435"/>
</g>
<!-- reward1 -->
<g id="node6" class="node">
<title>reward1</title>
<polygon fill="none" stroke="#000000" points="368.7068,-154.5442 368.7068,-169.4558 326.1161,-180 265.8839,-180 223.2932,-169.4558 223.2932,-154.5442 265.8839,-144 326.1161,-144 368.7068,-154.5442"/>
<text text-anchor="middle" x="296" y="-157.8" font-family="Times,serif" font-size="14.00" fill="#000000">Miner Reward</text>
</g>
<!-- mint_baton1&#45;&gt;reward1 -->
<g id="edge5" class="edge">
<title>mint_baton1-&gt;reward1</title>
<path fill="none" stroke="#000000" d="M243.664,-215.8314C251.9732,-207.2848 262.0264,-196.9443 271.0918,-187.6198"/>
<polygon fill="#000000" stroke="#000000" points="273.6369,-190.023 278.0982,-180.4133 268.6179,-185.1435 273.6369,-190.023"/>
</g>
<!-- mint_baton3 -->
<g id="node4" class="node">
<title>mint_baton3</title>
<polygon fill="none" stroke="#000000" points="135.0582,-108 36.9418,-108 36.9418,-72 135.0582,-72 135.0582,-108"/>
<text text-anchor="middle" x="86" y="-85.8" font-family="Times,serif" font-size="14.00" fill="#000000">Minting Baton</text>
</g>
<!-- mint_baton2&#45;&gt;mint_baton3 -->
<g id="edge3" class="edge">
<title>mint_baton2-&gt;mint_baton3</title>
<path fill="none" stroke="#000000" d="M138.336,-143.8314C130.0268,-135.2848 119.9736,-124.9443 110.9082,-115.6198"/>
<polygon fill="#000000" stroke="#000000" points="113.3821,-113.1435 103.9018,-108.4133 108.3631,-118.023 113.3821,-113.1435"/>
</g>
<!-- reward2 -->
<g id="node7" class="node">
<title>reward2</title>
<polygon fill="none" stroke="#000000" points="298.7068,-82.5442 298.7068,-97.4558 256.1161,-108 195.8839,-108 153.2932,-97.4558 153.2932,-82.5442 195.8839,-72 256.1161,-72 298.7068,-82.5442"/>
<text text-anchor="middle" x="226" y="-85.8" font-family="Times,serif" font-size="14.00" fill="#000000">Miner Reward</text>
</g>
<!-- mint_baton2&#45;&gt;reward2 -->
<g id="edge6" class="edge">
<title>mint_baton2-&gt;reward2</title>
<path fill="none" stroke="#000000" d="M173.664,-143.8314C181.9732,-135.2848 192.0264,-124.9443 201.0918,-115.6198"/>
<polygon fill="#000000" stroke="#000000" points="203.6369,-118.023 208.0982,-108.4133 198.6179,-113.1435 203.6369,-118.023"/>
</g>
<!-- mint_baton_ -->
<g id="node5" class="node">
<title>mint_baton_</title>
<polygon fill="none" stroke="#000000" points="54,-36 0,-36 0,0 54,0 54,-36"/>
<text text-anchor="middle" x="27" y="-13.8" font-family="Times,serif" font-size="14.00" fill="#000000">...</text>
</g>
<!-- mint_baton3&#45;&gt;mint_baton_ -->
<g id="edge4" class="edge">
<title>mint_baton3-&gt;mint_baton_</title>
<path fill="none" stroke="#000000" d="M71.1118,-71.8314C64.247,-63.454 55.9699,-53.3531 48.4489,-44.1749"/>
<polygon fill="#000000" stroke="#000000" points="51.1341,-41.9297 42.0886,-36.4133 45.7197,-46.3665 51.1341,-41.9297"/>
</g>
<!-- reward3 -->
<g id="node8" class="node">
<title>reward3</title>
<polygon fill="none" stroke="#000000" points="217.7068,-10.5442 217.7068,-25.4558 175.1161,-36 114.8839,-36 72.2932,-25.4558 72.2932,-10.5442 114.8839,0 175.1161,0 217.7068,-10.5442"/>
<text text-anchor="middle" x="145" y="-13.8" font-family="Times,serif" font-size="14.00" fill="#000000">Miner Reward</text>
</g>
<!-- mint_baton3&#45;&gt;reward3 -->
<g id="edge7" class="edge">
<title>mint_baton3-&gt;reward3</title>
<path fill="none" stroke="#000000" d="M100.8882,-71.8314C107.753,-63.454 116.0301,-53.3531 123.5511,-44.1749"/>
<polygon fill="#000000" stroke="#000000" points="126.2803,-46.3665 129.9114,-36.4133 120.8659,-41.9297 126.2803,-46.3665"/>
</g>
</g>
</svg>